<?xml version="1.0" encoding="UTF-8" standalone="no"?>
<!-- Uploaded to: SVG Repo, www.svgrepo.com, Generator: SVG Repo Mixer Tools -->

<svg
   width="700"
   height="509.091"
   viewBox="0 0 28 20.36364"
   fill="none"
   version="1.1"
   id="svg2"
   sodipodi:docname="discord-svgrepo-com.svg"
   xmlns:inkscape="http://www.inkscape.org/namespaces/inkscape"
   xmlns:sodipodi="http://sodipodi.sourceforge.net/DTD/sodipodi-0.dtd"
   xmlns="http://www.w3.org/2000/svg"
   xmlns:svg="http://www.w3.org/2000/svg">
  <defs
     id="defs2" />
  <sodipodi:namedview
     id="namedview2"
     pagecolor="#ffffff"
     bordercolor="#000000"
     borderopacity="0.25"
     inkscape:showpageshadow="2"
     inkscape:pageopacity="0.0"
     inkscape:pagecheckerboard="0"
     inkscape:deskcolor="#d1d1d1">
    <inkscape:page
       x="0"
       y="0"
       width="28"
       height="20.36364"
       id="page2"
       margin="0"
       bleed="0" />
  </sodipodi:namedview>
  <path
     d="M 23.718678,1.7054283 C 21.906187,0.90871437 19.968077,0.32967437 17.942023,-6.3769529e-7 17.693204,0.42265937 17.402514,0.99113537 17.202059,1.4433743 c -2.153837,-0.304309 -4.287819,-0.304309 -6.402073,0 C 10.599658,0.99113537 10.302222,0.42265937 10.05124,-6.3769529e-7 8.022894,0.32967437 6.0827102,0.91082637 4.2702318,1.7096543 0.6144242,6.8998363 -0.3766105,11.961219 0.1189005,16.950693 2.5436244,18.651947 4.8934737,19.685275 7.2036394,20.361475 7.7740759,19.624057 8.282785,18.840057 8.721112,18.013675 7.8863304,17.715729 7.0869303,17.348038 6.3315666,16.921038 6.5320212,16.781675 6.7280212,16.63582 6.917403,16.485765 c 4.607274,2.024528 9.61291,2.024528 14.165202,0 0.191545,0.150055 0.387545,0.29591 0.585709,0.435273 -0.757527,0.429037 -1.559218,0.796728 -2.393873,1.0948 0.4382,0.824219 0.944746,1.610255 1.517346,2.347801 2.312418,-0.6762 4.664418,-1.709655 7.089219,-3.412946 C 28.462387,11.166656 26.887769,6.1517273 23.718678,1.7054283 Z M 9.348694,13.882274 c -1.3830727,0 -2.5172001,-1.213164 -2.5172001,-2.690291 0,-1.4771277 1.1099456,-2.6923287 2.5172001,-2.6923287 1.407255,0 2.541383,1.213037 2.517201,2.6923287 0.0023,1.477127 -1.109946,2.690291 -2.517201,2.690291 z m 9.302492,0 c -1.383072,0 -2.5172,-1.213164 -2.5172,-2.690291 0,-1.4771277 1.109946,-2.6923287 2.5172,-2.6923287 1.407255,0 2.54151,1.213037 2.517201,2.6923287 0,1.477127 -1.109946,2.690291 -2.517201,2.690291 z"
     fill="#5865f2"
     id="path2"
     style="stroke-width:1.27273" />
</svg>
