<?xml version="1.0" encoding="UTF-8" standalone="no"?>
<svg
   viewBox="0 0 100 100"
   width="2500"
   height="2500"
   version="1.1"
   id="svg2"
   sodipodi:docname="opensea.svg"
   xmlns:inkscape="http://www.inkscape.org/namespaces/inkscape"
   xmlns:sodipodi="http://sodipodi.sourceforge.net/DTD/sodipodi-0.dtd"
   xmlns="http://www.w3.org/2000/svg"
   xmlns:svg="http://www.w3.org/2000/svg">
  <defs
     id="defs2" />
  <sodipodi:namedview
     id="namedview2"
     pagecolor="#ffffff"
     bordercolor="#000000"
     borderopacity="0.25"
     inkscape:showpageshadow="2"
     inkscape:pageopacity="0.0"
     inkscape:pagecheckerboard="0"
     inkscape:deskcolor="#d1d1d1">
    <inkscape:page
       x="0"
       y="0"
       width="100"
       height="100"
       id="page2"
       margin="0"
       bleed="0" />
  </sodipodi:namedview>
  <circle
     cx="50"
     cy="50"
     fill="#2081e2"
     r="50"
     id="circle1" />
  <g
     fill="#ffffff"
     id="g2">
    <path
       d="M 24.668,51.68 24.884,51.341 37.89,30.993 a 0.445,0.445 0 0 1 0.78,0.057 c 2.173,4.87 4.048,10.926 3.17,14.697 -0.375,1.551 -1.402,3.652 -2.558,5.594 -0.15,0.283 -0.314,0.56 -0.488,0.827 a 0.442,0.442 0 0 1 -0.37,0.195 H 25.048 c -0.36,0 -0.57,-0.39 -0.38,-0.683 z"
       id="path1" />
    <path
       d="m 82.644,55.461 v 3.22 c 0,0.186 -0.113,0.35 -0.277,0.422 -1.007,0.432 -4.454,2.014 -5.887,4.007 -3.658,5.09 -6.452,12.37 -12.699,12.37 H 37.721 C 28.485,75.48 21,67.97 21,58.702 v -0.297 c 0,-0.247 0.2,-0.447 0.447,-0.447 h 14.528 c 0.287,0 0.498,0.267 0.472,0.55 a 4.959,4.959 0 0 0 0.519,2.789 5.111,5.111 0 0 0 4.582,2.846 h 7.192 v -5.615 h -7.11 a 0.458,0.458 0 0 1 -0.37,-0.72 c 0.078,-0.118 0.165,-0.24 0.257,-0.38 a 51.806,51.806 0 0 0 2.59,-4.13 c 0.652,-1.14 1.284,-2.358 1.792,-3.58 0.103,-0.221 0.185,-0.447 0.267,-0.668 0.139,-0.39 0.283,-0.755 0.386,-1.12 0.102,-0.308 0.185,-0.632 0.267,-0.935 0.241,-1.038 0.344,-2.137 0.344,-3.277 0,-0.447 -0.02,-0.915 -0.062,-1.362 -0.02,-0.488 -0.082,-0.976 -0.144,-1.464 a 15.176,15.176 0 0 0 -0.2,-1.305 21.99,21.99 0 0 0 -0.41,-1.952 L 46.29,37.389 c -0.124,-0.447 -0.226,-0.873 -0.37,-1.32 a 49.81,49.81 0 0 0 -1.367,-4.048 c -0.18,-0.509 -0.385,-0.997 -0.59,-1.485 -0.303,-0.735 -0.612,-1.402 -0.894,-2.034 -0.144,-0.288 -0.267,-0.55 -0.39,-0.817 a 28.758,28.758 0 0 0 -0.427,-0.894 c -0.103,-0.22 -0.221,-0.426 -0.303,-0.632 L 41.07,24.536 a 0.286,0.286 0 0 1 0.324,-0.416 l 5.497,1.49 h 0.015 c 0.01,0 0.016,0.005 0.02,0.005 l 0.725,0.2 0.796,0.226 0.293,0.082 v -3.267 c 0,-1.577 1.264,-2.856 2.825,-2.856 0.781,0 1.49,0.318 1.999,0.837 0.508,0.52 0.827,1.228 0.827,2.02 v 4.849 l 0.585,0.164 a 0.468,0.468 0 0 1 0.134,0.067 c 0.144,0.108 0.35,0.267 0.611,0.462 0.206,0.164 0.427,0.365 0.694,0.57 0.529,0.427 1.16,0.976 1.854,1.608 0.185,0.16 0.365,0.324 0.53,0.488 a 42.349,42.349 0 0 1 2.85,2.887 c 0.268,0.303 0.53,0.611 0.797,0.935 0.267,0.329 0.55,0.652 0.796,0.976 0.324,0.432 0.673,0.879 0.976,1.346 0.144,0.221 0.308,0.447 0.447,0.668 0.39,0.59 0.734,1.202 1.063,1.813 0.139,0.283 0.283,0.591 0.406,0.894 0.365,0.817 0.652,1.65 0.837,2.481 0.057,0.18 0.098,0.375 0.118,0.55 v 0.041 c 0.062,0.247 0.083,0.509 0.103,0.776 a 8.298,8.298 0 0 1 -0.144,2.563 9.34,9.34 0 0 1 -0.303,1.074 c -0.123,0.35 -0.246,0.714 -0.406,1.058 a 14.347,14.347 0 0 1 -1.104,2.096 c -0.139,0.246 -0.303,0.508 -0.468,0.755 -0.18,0.262 -0.364,0.509 -0.529,0.75 -0.226,0.308 -0.467,0.632 -0.714,0.92 -0.22,0.303 -0.447,0.606 -0.693,0.873 a 33.57,33.57 0 0 1 -1.017,1.16 c -0.206,0.242 -0.427,0.489 -0.653,0.71 -0.22,0.246 -0.447,0.467 -0.652,0.673 -0.344,0.344 -0.632,0.611 -0.873,0.832 l -0.565,0.519 a 0.461,0.461 0 0 1 -0.303,0.113 H 54.39 v 5.615 h 5.507 a 5.152,5.152 0 0 0 3.349,-1.239 c 0.324,-0.282 1.736,-1.505 3.406,-3.349 a 0.427,0.427 0 0 1 0.21,-0.128 l 15.211,-4.398 a 0.449,0.449 0 0 1 0.57,0.432 z"
       id="path2" />
  </g>
</svg>
